<svg xmlns="http://www.w3.org/2000/svg" width="171" height="57" viewBox="0 0 171 57">
  <defs>
    <style>
      .cls-1 {
        fill: #ecdac6;
        fill-rule: evenodd;
      }
    </style>
  </defs>
  <path id="Insert_Your_Logo_Here" data-name="Insert Your Logo Here" class="cls-1" d="M0,33.584V33.192c0.633-.347,1.244-0.745,1.9-1.028a22.573,22.573,0,0,1,2.307-.792A0.611,0.611,0,0,0,4.749,30.7c-0.016-.911.075-1.83-0.007-2.734-0.163-1.8-.7-3.381-2.67-3.943a1.1,1.1,0,0,1-.542-0.334,1.429,1.429,0,0,1-.443-0.848,1.232,1.232,0,0,1,.724-0.673c0.778-.3,1.59-0.513,2.415-0.768a8.423,8.423,0,0,1-.761-1A11.283,11.283,0,0,1,2.7,10.8,4.13,4.13,0,0,1,6.023,8.027c2.133-.354,4.28-0.62,6.421-0.921Q27.008,5.059,41.573,3.022a2.555,2.555,0,0,1,1.06.081Q49,5.024,55.35,6.98q4.391,1.345,8.78,2.7a0.74,0.74,0,0,1,.31,1.367,2.944,2.944,0,0,1-.992.578,3.122,3.122,0,0,0-2.021,2.108,11.271,11.271,0,0,0-.37,4.384,0.706,0.706,0,0,0,.6.751,12.488,12.488,0,0,1,4.153,1.793v0.392l-3.422.974A10.342,10.342,0,0,1,61.067,34.37c0.384,0.125.748,0.239,1.109,0.364a0.739,0.739,0,0,1,.277,1.344,3.274,3.274,0,0,1-1.051.6,3.034,3.034,0,0,0-1.917,1.959,10.107,10.107,0,0,0-.405,4.567,0.7,0.7,0,0,0,.569.7c1.171,0.405,2.333.846,3.472,1.335a2.416,2.416,0,0,1,.641.72,3.5,3.5,0,0,1-.756.4q-17.425,4.307-34.858,8.579a2.238,2.238,0,0,1-1.17-.056c-7.672-2.514-15.334-5.059-23.008-7.568a3.883,3.883,0,0,1-2.344-1.7A16.972,16.972,0,0,1,.411,42.852,14.5,14.5,0,0,1,0,40.763v-2.48a7.121,7.121,0,0,1,1.847-4.121Zm29.588-7.015c0.024-.4.054-0.736,0.064-1.077,0.064-2.108.1-4.217,0.2-6.324a0.726,0.726,0,0,0-.619-0.852Q18.069,14.644,6.914,10.944a1.7,1.7,0,0,0-2.458,1.221,9.234,9.234,0,0,0,.369,6.427A2.308,2.308,0,0,0,6.354,19.98q7.538,2.125,15.071,4.267C24.12,25.01,26.813,25.779,29.588,26.569ZM27.605,51.609c0.084-2.5.146-4.928,0.265-7.358a0.748,0.748,0,0,0-.645-0.893Q16.092,39.7,4.971,36a1.729,1.729,0,0,0-2.537,1.272,9.144,9.144,0,0,0,.4,6.36,2.306,2.306,0,0,0,1.527,1.387q9.049,2.558,18.095,5.13C24.155,50.635,25.861,51.116,27.605,51.609Zm8.63-12.53c0.3-.082.543-0.146,0.784-0.214,7.308-2.078,14.609-4.181,21.93-6.21a3.079,3.079,0,0,0,2.314-2.176,10.191,10.191,0,0,0,.26-5.343c-0.338-1.542-1.271-2.125-2.541-1.7q-11.25,3.719-22.5,7.441a0.622,0.622,0,0,0-.515.73c0.088,2.216.139,4.434,0.207,6.651C36.183,38.51,36.212,38.765,36.235,39.079Zm-30.31-7.3,29,7.323c-0.084-2.7-.165-5.319-0.247-7.976L5.258,24.992C6.3,27.243,6.129,29.478,5.925,31.782Zm24.965-5.2,29-7.329c-0.208-2.289-.377-4.541.657-6.788L31.14,18.607C31.057,21.281,30.975,23.881,30.891,26.587ZM58.537,37.545c-0.3.045-.467,0.063-0.632,0.1-3.832.8-7.666,1.591-11.495,2.405-2.488.529-4.971,1.085-7.454,1.642-1.221.274-2.336,1.136-3.688,0.678l-6.13,1.289c-0.083,2.661-.165,5.281-0.249,7.973L57.9,44.3A12.343,12.343,0,0,1,58.537,37.545Zm19.349-15.5a5.169,5.169,0,0,1-2.037-4.076h5.009a1.913,1.913,0,0,0,.527,1.314,1.884,1.884,0,0,0,2.241.085,1.1,1.1,0,0,0,.419-0.913,1.294,1.294,0,0,0-.7-1.168,12.161,12.161,0,0,0-2.253-.925,20.05,20.05,0,0,1-2.672-1.083,5.143,5.143,0,0,1-1.773-1.533,4.3,4.3,0,0,1-.755-2.641,4.867,4.867,0,0,1,.815-2.835,5.055,5.055,0,0,1,2.253-1.789,8.3,8.3,0,0,1,3.26-.608,7.358,7.358,0,0,1,4.71,1.4,5.063,5.063,0,0,1,1.881,3.93h-5.1a1.541,1.541,0,0,0-.467-1.168,1.664,1.664,0,0,0-1.139-.39,1.207,1.207,0,0,0-.863.316,1.177,1.177,0,0,0-.336.9,1.117,1.117,0,0,0,.372.84,3.387,3.387,0,0,0,.923.608q0.551,0.256,1.63.645a19.9,19.9,0,0,1,2.648,1.107,5.429,5.429,0,0,1,1.8,1.533,3.985,3.985,0,0,1,.755,2.495,5.11,5.11,0,0,1-.755,2.75A5.208,5.208,0,0,1,86.1,22.765a7.51,7.51,0,0,1-3.367.706A7.836,7.836,0,0,1,77.887,22.047Zm13.421-9.285a6,6,0,0,1,2.409-2.434,7.206,7.206,0,0,1,3.535-.852,6.613,6.613,0,0,1,4.314,1.424,6.562,6.562,0,0,1,2.253,3.979H98.834a1.674,1.674,0,0,0-1.678-1.339,1.62,1.62,0,0,0-1.4.742,3.815,3.815,0,0,0-.515,2.178,3.874,3.874,0,0,0,.515,2.19,1.613,1.613,0,0,0,1.4.755,1.65,1.65,0,0,0,1.678-1.338h4.985a6.355,6.355,0,0,1-6.567,5.4,7.2,7.2,0,0,1-3.535-.852,5.992,5.992,0,0,1-2.409-2.434,7.662,7.662,0,0,1-.863-3.724A7.608,7.608,0,0,1,91.308,12.762ZM118.259,11.1a6.281,6.281,0,0,1,1.354,4.247V23.3h-4.7V15.975a2.658,2.658,0,0,0-.6-1.837,2.05,2.05,0,0,0-1.606-.669,2.106,2.106,0,0,0-1.654.669,2.653,2.653,0,0,0-.6,1.837V23.3h-4.7V5.291h4.7v6.3a4.621,4.621,0,0,1,1.69-1.5,5.112,5.112,0,0,1,2.456-.572A4.58,4.58,0,0,1,118.259,11.1Zm6.591,11.524a6.218,6.218,0,0,1-2.5-2.434,7.327,7.327,0,0,1-.911-3.724,7.21,7.21,0,0,1,.922-3.7,6.305,6.305,0,0,1,2.517-2.434,8.063,8.063,0,0,1,7.214,0,6.318,6.318,0,0,1,2.517,2.434,7.21,7.21,0,0,1,.922,3.7,7.277,7.277,0,0,1-.922,3.712,6.271,6.271,0,0,1-2.529,2.446A8.087,8.087,0,0,1,124.85,22.619Zm5.249-4.028a3.108,3.108,0,0,0,.659-2.13,3.061,3.061,0,0,0-.659-2.117,2.1,2.1,0,0,0-1.618-.73,2.061,2.061,0,0,0-1.606.73,3.1,3.1,0,0,0-.647,2.117,3.22,3.22,0,0,0,.623,2.142,2.016,2.016,0,0,0,1.606.73A2.106,2.106,0,0,0,130.1,18.591Zm9.994,4.028a6.221,6.221,0,0,1-2.5-2.434,7.336,7.336,0,0,1-.91-3.724,7.21,7.21,0,0,1,.922-3.7,6.305,6.305,0,0,1,2.517-2.434,8.063,8.063,0,0,1,7.214,0,6.318,6.318,0,0,1,2.517,2.434,7.21,7.21,0,0,1,.922,3.7,7.277,7.277,0,0,1-.922,3.712,6.271,6.271,0,0,1-2.529,2.446A8.087,8.087,0,0,1,140.093,22.619Zm5.249-4.028a3.108,3.108,0,0,0,.659-2.13,3.061,3.061,0,0,0-.659-2.117,2.1,2.1,0,0,0-1.618-.73,2.061,2.061,0,0,0-1.606.73,3.1,3.1,0,0,0-.647,2.117,3.215,3.215,0,0,0,.623,2.142,2.014,2.014,0,0,0,1.606.73A2.106,2.106,0,0,0,145.342,18.591Zm12.043-13.3V23.3h-4.7V5.291h4.7ZM81.05,44.082H86.3v3.651H76.353V30.574h4.7V44.082ZM88.492,32.12a2.263,2.263,0,0,1-.755-1.74,2.33,2.33,0,0,1,.755-1.777,2.813,2.813,0,0,1,2-.706,2.779,2.779,0,0,1,1.977.706,2.329,2.329,0,0,1,.755,1.777,2.263,2.263,0,0,1-.755,1.74,2.808,2.808,0,0,1-1.977.694A2.843,2.843,0,0,1,88.492,32.12Zm4.326,1.959V47.732h-4.7V34.079h4.7Zm8.94,0.377a4.891,4.891,0,0,1,2.373-.548,5.219,5.219,0,0,1,2.912.852,5.81,5.81,0,0,1,2.061,2.434,9.47,9.47,0,0,1,0,7.411,5.794,5.794,0,0,1-2.061,2.446,5.216,5.216,0,0,1-2.912.852,4.893,4.893,0,0,1-2.373-.547,3.882,3.882,0,0,1-1.558-1.521v1.9H95.5V29.723h4.7v6.255A3.882,3.882,0,0,1,101.758,34.456Zm2.625,4.356a2.392,2.392,0,0,0-3.476.012,2.907,2.907,0,0,0-.707,2.069,2.942,2.942,0,0,0,.707,2.093,2.366,2.366,0,0,0,3.476-.012,2.951,2.951,0,0,0,.707-2.081A2.9,2.9,0,0,0,104.383,38.813Zm14.032-4.174a4.6,4.6,0,0,1,2.421-.681v5.087h-1.318a3.551,3.551,0,0,0-2.277.608,2.6,2.6,0,0,0-.743,2.117v5.963h-4.7V34.079h4.7v2.41A6.154,6.154,0,0,1,118.415,34.639Zm4.086,2.556a5.812,5.812,0,0,1,2.062-2.434,5.215,5.215,0,0,1,2.912-.852,4.855,4.855,0,0,1,2.4.56,4.021,4.021,0,0,1,1.558,1.509v-1.9h4.7V47.732h-4.7v-1.9a4,4,0,0,1-1.57,1.509,4.872,4.872,0,0,1-2.384.56,5.211,5.211,0,0,1-2.912-.852,5.8,5.8,0,0,1-2.062-2.446A9.47,9.47,0,0,1,122.5,37.194Zm8.221,1.63a2.405,2.405,0,0,0-3.487-.012,2.925,2.925,0,0,0-.695,2.081,2.978,2.978,0,0,0,.695,2.081,2.259,2.259,0,0,0,1.749.767,2.289,2.289,0,0,0,1.738-.755,2.942,2.942,0,0,0,.707-2.093A2.907,2.907,0,0,0,130.722,38.825Zm14.7-4.186a4.6,4.6,0,0,1,2.42-.681v5.087h-1.318a3.551,3.551,0,0,0-2.277.608,2.6,2.6,0,0,0-.743,2.117v5.963h-4.7V34.079h4.7v2.41A6.157,6.157,0,0,1,145.426,34.639ZM164,34.079L155.468,54.23h-5.1l3.211-7.082-5.512-13.069h5.225l2.828,7.74,2.732-7.739H164Z"/>
</svg>
