<svg xmlns="http://www.w3.org/2000/svg" width="250.375" height="455.311" viewBox="0 0 250.375 455.311">
  <defs>
    <style>
      .cls-1 {
        fill: #837f74;
        fill-rule: evenodd;
      }
    </style>
  </defs>
  <path id="Shape" class="cls-1" d="M250.064,1285.75a45.868,45.868,0,0,1-1.9,8.27c-7.5,23.04-29.474,37.34-51.706,34.45a44.847,44.847,0,0,1-14.912-4.72,36.13,36.13,0,0,0-12.159-3.86c-10.035-1.34-20.128,1.65-30.851,4.5-8.029,2.11-15.872,3.46-23.641,2.45a37.459,37.459,0,0,1-21.328-10.49c-6.528-6.15-13.751-11.8-22.419-13.38a8.627,8.627,0,0,1-.427-1.07,17.589,17.589,0,0,0-2.556-5.11c0.777,0.05,1.544.12,2.3,0.22,11.351,1.5,19.947,8.45,27.057,15.13,5.978,5.6,11.849,8.12,18.114,8.96,6.585,0.87,13.706-.27,21.422-2.31,10.565-2.76,21.4-6.15,33.07-4.65a42.3,42.3,0,0,1,14.077,4.47,38.948,38.948,0,0,0,12.994,4.12c19.25,2.54,38.793-9.96,45.468-30.51a40.282,40.282,0,0,0,1.661-7.22,0.016,0.016,0,0,1,0-.01,24.578,24.578,0,0,0-.64-10.33,261.278,261.278,0,0,1-9.139-44.38c-1.652-12.83-6.941-22.23-14.33-30.29-7.388-8.03-16.938-14.6-26.817-21.27a32.106,32.106,0,0,0-14.138-5.2,56.161,56.161,0,0,0-10.973-.21c-4.539.29-9.794,1.38-15.209,0.69a18.637,18.637,0,0,1-7.895-2.8,21.371,21.371,0,0,0-8.943-3.33c-4.26-.56-8.751.14-13.543,1.39a20.953,20.953,0,0,1-8.154.91,12.9,12.9,0,0,1-3.359-.91c-0.075-.03-0.149-0.07-0.219-0.1,2.058-1.52,4.059-3.08,6.023-4.68a23.5,23.5,0,0,0,4.244-.82c5.114-1.33,10.354-2.23,15.75-1.53a27.02,27.02,0,0,1,11.331,4.21,13,13,0,0,0,5.507,1.92c4.107,0.56,9.034-.35,14.062-0.72a60.472,60.472,0,0,1,12.12.24,37.969,37.969,0,0,1,16.623,6.14c9.893,6.69,19.826,13.46,27.839,22.15a58.911,58.911,0,0,1,15.814,33.49,255.818,255.818,0,0,0,8.927,43.39,30.314,30.314,0,0,1,.85,12.8M-8,1073.84c0,0.01,0,.03,0,0.04-0.848,6.16-4.061,11.53-5.455,16.29a13.937,13.937,0,0,0-.5,2.1s0,0.01,0,.01a2.434,2.434,0,0,0,.067,1.22,2.665,2.665,0,0,0,.916,1.1,2.9,2.9,0,0,1,1.051,2.63,2.872,2.872,0,0,1-.618,1.44,2.875,2.875,0,0,1-4.064.43,8.43,8.43,0,0,1-2.688-3.54,8.182,8.182,0,0,1-.4-3.99c0-.01,0-0.02.005-0.04a18.856,18.856,0,0,1,.706-3.05c1.741-5.57,4.655-10.72,5.234-15.2q0.01-.075.019-0.15a10.894,10.894,0,0,0-.512-5.31c-4.017-10.88-8.321-21.63-14.274-30.86s-13.49-16.96-24.146-22.11c-18.056-8.71-36.433-16.942-55.659-22.174a87.715,87.715,0,0,0-11.6-2.384c-11.459-1.479-22.386-.147-33.218,6.255-17.882,10.623-26.618,26.7-32.993,46.493a171.758,171.758,0,0,0-7.1,30.4c-2.313,17.97-.752,35.59,7.326,53.41a10.747,10.747,0,0,1,1.377,4.33c0.393,18.23,9.277,31.27,23.615,42.17a2.9,2.9,0,0,1,1.128,2.69,2.841,2.841,0,0,1-.558,1.36,2.94,2.94,0,0,1-.56.57,2.85,2.85,0,0,0-.325-0.66,2.887,2.887,0,0,0-4.005-.83c-0.2.13-.392,0.26-0.585,0.4-14.439-11.3-24.151-26-24.489-45.6l-0.177-.56c-0.148-.37-0.4-0.87-0.681-1.48-8.576-18.87-10.23-37.74-7.808-56.49l0.009-.06a177.437,177.437,0,0,1,7.334-31.43c6.494-20.31,16.028-38.15,35.547-49.7,12.034-7.153,24.557-8.644,36.907-7.012a93.3,93.3,0,0,1,12.369,2.537c19.807,5.394,38.5,13.792,56.654,22.542a62.772,62.772,0,0,1,23.2,19.44q-0.479,1.44-.867,2.94a2.619,2.619,0,0,0-.073.37,2.9,2.9,0,0,0,2.128,3.17,2.883,2.883,0,0,0,2.748-.72c6.021,9.63,10.279,20.38,14.2,30.99A16.7,16.7,0,0,1-8,1073.84M-65.055,1363.6c-1.571,2.05-3.092,4.34-4.778,6.62-2.837,3.81-6.288,7.68-11.6,9.77-4.105,1.61-7.248,3.79-8.84,6.71-3.276,5.98-7.7,9.71-12.62,11.54-4.918,1.85-10.139,1.88-15.276,1.21-2.057-.27-4.109-0.66-6.141-1.1-20.954-4.55-37.207-14.24-49.491-27.65s-20.63-30.45-26.194-49.69c-6.4-22.14-5.13-44.37-2.28-66.47,0.517-4,1.086-8,1.675-11.99,1.939-13.15,4.761-25.65,10.123-36.92a70.123,70.123,0,0,1,24.647-28.75c0.193-.14.389-0.27,0.585-0.4a2.887,2.887,0,0,1,4.005.83,2.85,2.85,0,0,1,.325.66,2.855,2.855,0,0,1,.131,1.3,2.883,2.883,0,0,1-1.272,2.05h0a64.381,64.381,0,0,0-23.2,26.81c-4.986,10.46-7.73,22.4-9.622,35.27-0.585,3.97-1.149,7.94-1.66,11.89l-0.012.09c-2.819,21.81-3.933,43.14,2.112,64.02,5.39,18.65,13.383,34.83,24.9,47.38s26.552,21.57,46.457,25.91c1.922,0.42,3.818.78,5.661,1.02,4.625,0.6,8.869.48,12.5-.89s6.816-3.93,9.6-8.93c2.582-4.64,7.047-7.42,11.78-9.29,3.787-1.49,6.442-4.3,9.087-7.85,2.641-3.52,5.127-7.69,8.8-11.19a3.448,3.448,0,0,1,.477-0.37,36.6,36.6,0,0,0,.134,8.41m211.571-265.29s0,0.01,0,.01a29.106,29.106,0,0,1-3.212,9.93,38.874,38.874,0,0,0-4.323,13.41,41.8,41.8,0,0,0-.185,8.72,27.951,27.951,0,0,1-.135,5.82,29.366,29.366,0,0,1-9.912,18.11c-3.834,3.44-7.709,6.87-11.75,10.17-1.964,1.6-3.965,3.16-6.023,4.68a109.673,109.673,0,0,1-12.94,8.27c-4.207,2.3-8.236,2-11.342,1.58-0.639-.08-1.254-0.17-1.847-0.25a14.526,14.526,0,0,0-4.917-.04c-12.92,2.7-25.165,7.82-37.651,12.86-3.182,1.27-6.673,2.75-10.926,2.44-7.732-.6-14.715,1.4-21.752,4.34s-14.011,6.81-21.6,9.62a8.508,8.508,0,0,0-3.043,1.94,19.879,19.879,0,0,0-8.031,3.09A14.514,14.514,0,0,1-14,1202.54c7.037-2.59,13.959-6.42,21.374-9.52a62.547,62.547,0,0,1,14.472-4.36,15.352,15.352,0,0,0,.508,2.41,2.891,2.891,0,1,0,5.538-1.66,9.024,9.024,0,0,1-.284-1.28c1.37-.03,2.764,0,4.183.11,2.555,0.21,5.11-.72,8.325-2.03,12.436-5.01,25-10.3,38.631-13.16a20.156,20.156,0,0,1,6.844-.03c0.637,0.08,1.251.17,1.847,0.25,2.96,0.37,5.153.5,7.857-.94,10.988-5.92,20.26-13.96,29.6-22.33a23.615,23.615,0,0,0,8.038-14.55,22.037,22.037,0,0,0,.105-4.61,47.723,47.723,0,0,1,.213-9.91c0-.01,0-0.01,0-0.02a44.739,44.739,0,0,1,4.952-15.39,23.262,23.262,0,0,0,2.582-7.95,21.646,21.646,0,0,0-2.346-12.86c-11.158-21.54-18.046-44.47-27.162-66.2a27.609,27.609,0,0,0-5.294-8.53,11.907,11.907,0,0,0-7.059-3.8l-0.729-.07c-0.914-.05-1.816-0.14-2.7-0.26-12.149-1.59-20.88-8.306-29.25-15.022-6.491-5.207-12.806-8.053-18.865-8.844-10.064-1.294-19.912,2.9-29.524,13.15-5.918,6.336-12.247,12.6-21.011,16.176-10.237,4.23-16.2,11.46-19.085,22.18a2.85,2.85,0,0,1-.786,1.34,2.883,2.883,0,0,1-2.748.72,2.9,2.9,0,0,1-2.128-3.17,2.619,2.619,0,0,1,.073-0.37q0.388-1.5.867-2.94a36.483,36.483,0,0,1,21.624-23.13c7.435-3.02,13.159-8.52,18.968-14.761,10.327-11.129,22.2-16.563,34.493-14.937,7.331,0.957,14.632,4.362,21.736,10.071,8.346,6.714,16.062,12.457,26.379,13.8,0.762,0.1,1.536.18,2.32,0.23l1.107,0.1a17.7,17.7,0,0,1,10.463,5.51,33.331,33.331,0,0,1,6.477,10.32c9.258,22.11,16.12,44.88,26.963,65.77a27.512,27.512,0,0,1,2.951,16.27m-35.307,289.33c0,0.02-.006.05-0.009,0.07a39.966,39.966,0,0,1-4.043,12.1c-3.764,7.73-9.049,13.86-13.8,20.1a29.583,29.583,0,0,1-10.986,9.26,24.013,24.013,0,0,1-13.39,1.9,35.991,35.991,0,0,1-7.658-1.95c-14.9-5.49-30.549-8.61-46.323-10.67-1.227-.16-2.456-0.31-3.688-0.46l-0.582-.07c-11.719-1.52-21.188-6.36-29.991-12.98-7.911-5.94-15.231-11.16-24.822-13.09a22.427,22.427,0,0,1-13.533-8.45,37.422,37.422,0,0,1-6.449-14.4,50.775,50.775,0,0,1-.993-5.4,36.6,36.6,0,0,1-.134-8.41c0.026-.24.055-0.49,0.086-0.73,0-.02.005-0.04,0.008-0.06a31.618,31.618,0,0,1,8.258-17.29c5.717-6.36,9.578-13.17,10.515-20.46a29.679,29.679,0,0,0-2.193-15.22,9.419,9.419,0,0,1-.606-4.57,6.148,6.148,0,0,1,.641-2.1c2.569-4.8,3.78-10.1,4.776-15.73a142.625,142.625,0,0,1,3.166-15.59,2.849,2.849,0,0,0,1.232-.27,2.72,2.72,0,0,0,.984-0.74,2.789,2.789,0,0,0,1.02.69,2.872,2.872,0,0,0,2.946-.48,3.152,3.152,0,0,1-.023.34,3.117,3.117,0,0,1-.127.55c-1.721,5.13-2.486,10.74-3.508,16.52-1.027,5.76-2.318,11.71-5.343,17.4l-0.031.16,0.227,1.64a35.563,35.563,0,0,1,2.575,18.13c0,0.01,0,.01,0,0.02-1.151,8.87-5.754,16.69-11.948,23.59a25.712,25.712,0,0,0-6.833,14.22,0.026,0.026,0,0,0,0,.01,34.53,34.53,0,0,0,.931,12.44,31.723,31.723,0,0,0,5.381,12.18,16.611,16.611,0,0,0,10.116,6.33c11.07,2.25,19.218,8.2,27.144,14.14,8.343,6.24,16.722,10.48,27.273,11.87L12,1412.24c1.251,0.15,2.5.31,3.746,0.47,16.026,2.1,32.106,5.28,47.57,10.98a30.014,30.014,0,0,0,6.41,1.63,18.028,18.028,0,0,0,10.224-1.41,23.848,23.848,0,0,0,8.818-7.52c4.9-6.4,9.863-12.24,13.189-19.12a34.355,34.355,0,0,0,3.51-10.29c0-.01,0-0.01,0-0.02a14.469,14.469,0,0,0-.873-7.36,30.023,30.023,0,0,0-5.21-8.19c-5.5-6.57-10.441-13.48-15.548-20.13a2.891,2.891,0,0,1,.289-3.85,95.606,95.606,0,0,0,8.127-8.29,5.286,5.286,0,0,0,.864-1.48,8.745,8.745,0,0,0,.33-1.69c0-.02.006-0.05,0.009-0.07l0.109-.86c0.6-4.9-.339-8.25-2.3-11.06s-5.227-5.12-9.489-7.07a78.4,78.4,0,0,1-9.277-4.53,16.162,16.162,0,0,1-7.279-8.72,11.665,11.665,0,0,0-5-6.53,49.277,49.277,0,0,0-8.045-3.74,78.329,78.329,0,0,1-14.483-7.8,2.9,2.9,0,0,1-1.233-2.76,2.954,2.954,0,0,1,.482-1.27,2.888,2.888,0,0,1,4.019-.74h0a73.028,73.028,0,0,0,13.433,7.23,52.117,52.117,0,0,1,9,4.25,17.785,17.785,0,0,1,4.777,4.49,17.589,17.589,0,0,1,2.556,5.11,8.627,8.627,0,0,0,.427,1.07,11.236,11.236,0,0,0,4.415,4.51,78.281,78.281,0,0,0,8.611,4.17c4.78,2.19,8.958,4.99,11.8,8.99,2.838,3.96,4.106,9.07,3.335,15.03,0,0.04-.01.07-0.014,0.11l-0.109.87a11.663,11.663,0,0,1-3.709,7.64c-1.278,1.41-3.008,3.13-5.489,5.53,4.613,6.07,9.052,12.17,13.825,17.88a35.618,35.618,0,0,1,6.173,9.81,20.339,20.339,0,0,1,1.221,10.13m-14.2-178.38a2.843,2.843,0,0,1-.418,1.16,2.884,2.884,0,0,1-3.984.92c-0.8-.52-1.351-1.03-1.757-1.33l-0.276-.19c-29.966.71-59.885-.32-88.912,4.89-4.38.76-8.627,0.4-12.426,0.59-3.614.18-6.647,0.76-9.349,2.71a52.445,52.445,0,0,1-5.129-1.4,2.919,2.919,0,0,1-.02-0.88,2.885,2.885,0,0,1,1.064-1.89h0c0.37-.29.744-0.57,1.122-0.83a19.879,19.879,0,0,1,8.031-3.09,35.068,35.068,0,0,1,4-.4c4.292-.19,8.322.11,11.684-0.51,29.958-5.36,60.3-4.25,90.165-4.99l0.655,0.03a6.067,6.067,0,0,1,2.912,1.37c0.615,0.48,1.094.89,1.305,1.01a2.9,2.9,0,0,1,1.333,2.83M45.886,1096.84a2.885,2.885,0,0,1-1.422,2.14h0c-11.962,6.83-18.259,19.68-26.949,31.26-12.723,16.78-25.735,33.2-31.581,53.29a2.88,2.88,0,0,1-1.981,1.97,2.9,2.9,0,0,0-2.1-2.31,4.366,4.366,0,0,1-1.535-.99,2.739,2.739,0,0,1,.071-0.3c6.293-21.5,19.9-38.46,32.522-55.16,8.274-10.82,14.8-24.7,28.667-32.78a2.892,2.892,0,0,1,4.311,2.88m-91.868,94.89a4.7,4.7,0,0,1-.644,1.78c-0.738,1.18-1.559,2-1.737,2.34a2.882,2.882,0,0,1-3.988.89,2.9,2.9,0,0,1-1.323-2.82,2.858,2.858,0,0,1,.423-1.17,20.539,20.539,0,0,1,1.337-1.76l0.019-.03c-5.883-21.45-7.444-43.29-7.834-65.11a33.317,33.317,0,0,0-2.308-12.79,2.894,2.894,0,0,1-.212-1.51,2.894,2.894,0,0,1,1.724-2.29,2.892,2.892,0,0,1,3.8,1.52h0a38.952,38.952,0,0,1,2.777,14.97c0.39,21.92,1.985,43.54,7.865,64.53l0.1,1.45m154.56,50.5a2.877,2.877,0,0,1-2.67,2.5c-8.314.54-17.094,2.26-26.081,1.5-11.794-1.02-23.619-2.2-35.4-3.74q-9.893-1.29-19.731-2.96a12.619,12.619,0,0,1-2.12-3.13h0a2.887,2.887,0,0,0-5.509.8,2.849,2.849,0,0,0,.033.93c-8.73-1.76-17.98-4.49-25.264-11.81a2.941,2.941,0,0,1-.709-1.18q3.9,0.09,7.92-.18c6.626,4.97,15.058,6.82,23.562,8.32,7.478,1.34,15.006,2.48,22.564,3.47,11.668,1.52,23.408,2.69,35.153,3.71,7.9,0.7,16.408-.9,25.2-1.5a2.891,2.891,0,0,1,3.079,2.69,3.017,3.017,0,0,1-.017.58M58.609,1132.99a2.872,2.872,0,0,1-1.251,2.03c-24.68,16.63-47.829,34.73-66.428,57.9a40.209,40.209,0,0,1-3.79,4.4,12.433,12.433,0,0,1-6.258,3.33,2.9,2.9,0,0,1-3.381-2.31,2.888,2.888,0,0,1-.028-0.91,2.89,2.89,0,0,1,2.327-2.47,6.689,6.689,0,0,0,3.382-1.86,37.9,37.9,0,0,0,3.242-3.8c19.153-23.87,42.811-42.31,67.705-59.08a2.89,2.89,0,0,1,4.48,2.77m11.079,96.26a2.848,2.848,0,0,1-.088.43,2.39,2.39,0,0,0-.1.25,1.591,1.591,0,0,0-.051.16,2.882,2.882,0,0,1-1.852,1.58,42.181,42.181,0,0,1-17.1.76c-5.7-.75-11.16-2.08-16.444-2.76-0.962-.13-1.917-0.23-2.866-0.31s-1.889-.18-2.825-0.3c-7.151-.95-13.871-2.95-20.417-3.79a42.446,42.446,0,0,0-8.561-.34l-0.347.03q-4.019.27-7.92,0.18a71.53,71.53,0,0,1-7.222-.56c-0.944-.12-1.881-0.27-2.814-0.43-0.166-1.03-.327-2.06-0.48-3.1h0a2.9,2.9,0,0,0-3.282-2.45,2.9,2.9,0,0,0-2.443,2.49,2.916,2.916,0,0,0,.008.8c0.042,0.28.085,0.57,0.128,0.86a57.017,57.017,0,0,1-23.323-13.41c-5.968-5.56-11.912-11.17-17.343-17.27a2.881,2.881,0,0,0,.476-1.26,2.849,2.849,0,0,0-.075-1.11,2.889,2.889,0,0,0-3.535-2.06c-0.174.05-.348,0.09-0.522,0.14a89.936,89.936,0,0,1-12.8-20.52,331.626,331.626,0,0,0-21.16-40.98,2.881,2.881,0,0,1-.409-1.89,2.879,2.879,0,0,1,1.342-2.09,2.891,2.891,0,0,1,3.981.94,337.638,337.638,0,0,1,21.534,41.68,89.331,89.331,0,0,0,15.773,23.62,16.222,16.222,0,0,1,.057,4.48l-0.146.92c-0.012.05-.021,0.11-0.029,0.17a2.906,2.906,0,0,0,2.321,3.22,2.9,2.9,0,0,0,3.385-2.29l0.079-.5c3.53,3.57,7.232,7.05,11,10.55a51.466,51.466,0,0,0,19.135,11.52,52.445,52.445,0,0,0,5.129,1.4c1.559,0.34,3.143.61,4.754,0.83a71.51,71.51,0,0,0,14.328.32,48.167,48.167,0,0,1,9.723.37c7.156,0.94,13.875,2.94,20.417,3.79q1.282,0.165,2.546.27c1.065,0.09,2.109.2,3.145,0.34,5.7,0.75,11.158,2.08,16.444,2.76a36.671,36.671,0,0,0,14.8-.6,2.893,2.893,0,0,1,3.559,2.02,2.851,2.851,0,0,1,.083,1.14m-108.424-10.14a2.867,2.867,0,0,1-1.336,2.08,23.807,23.807,0,0,1-16.26,3.82,33.719,33.719,0,0,1-9.064-2.65c-7.587-3.31-15.642-6.57-22.128-12.37a21.147,21.147,0,0,0-11.925-5.46c-5.582-.75-11.8.3-18.407,0.78a2.891,2.891,0,0,1-3.09-2.68,2.94,2.94,0,0,1,.016-0.58,2.889,2.889,0,0,1,2.66-2.51c6.212-.42,12.779-1.62,19.562-0.75a26.963,26.963,0,0,1,15.039,6.89c5.446,4.91,12.9,8.06,20.565,11.37a28.036,28.036,0,0,0,7.512,2.22c4.314,0.54,8.066-.28,12.457-2.99a2.883,2.883,0,0,1,3.982.93,2.881,2.881,0,0,1,.415,1.9m31.225-116.64a3.016,3.016,0,0,1-.121.54c-5.679,17.15-15.956,31.71-18.962,48.37-0.136.75-.255,1.47-0.346,2.18,0,0.01,0,.03-0.006.04a15.009,15.009,0,0,0,.138,5.59,8.025,8.025,0,0,0,1.127,2.52,22.161,22.161,0,0,1-3.09,4.53c-0.122.13-.236,0.27-0.343,0.41a14.069,14.069,0,0,1-1.688-2.22q0.538-1.4,1.085-2.79h0a3.047,3.047,0,0,0,.174-0.69,2.892,2.892,0,0,0-1.819-3.06,2.81,2.81,0,0,0-1.506-.17,24.679,24.679,0,0,1,.194-4.91c0.108-.84.245-1.66,0.395-2.48,3.418-18.29,13.953-33.06,19.156-49.13a2.887,2.887,0,0,1,3.646-1.85,2.9,2.9,0,0,1,1.966,3.12m105.1,170.06a2.9,2.9,0,0,1-2.711,2.52,66.275,66.275,0,0,1-12.172-.53,143.989,143.989,0,0,1-17.851-3.8c-9.737-2.54-19.237-5.62-28.642-8.83q0.028-.435.056-0.87h0a2.891,2.891,0,0,0-5.646-1.05c-7.535-2.61-15.028-5.25-22.555-7.71-0.2-.87-0.417-1.78-0.674-2.73a18.134,18.134,0,0,0-1.45-3.77,2.9,2.9,0,0,1,1.232.12h0c6.467,2.08,12.868,4.29,19.247,6.51a7.239,7.239,0,0,1-.046,1.38l-0.21,1.07a2.806,2.806,0,0,0-.07.36,2.892,2.892,0,0,0,5.665,1.11,14.425,14.425,0,0,0,.349-1.79c0-.02,0-0.04.006-0.05,0-.04.009-0.07,0.012-0.1,11.331,3.92,22.638,7.74,34.181,10.75a139.961,139.961,0,0,0,17.137,3.66,59.756,59.756,0,0,0,11.117.48,2.907,2.907,0,0,1,3.043,2.74,2.878,2.878,0,0,1-.02.53m-152.846-78.77a0.05,0.05,0,0,1,0,.01l-0.122.77-0.079.5a2.9,2.9,0,0,1-3.385,2.29,2.906,2.906,0,0,1-2.321-3.22c0.008-.06.017-0.12,0.029-0.17l0.146-.92a16.222,16.222,0,0,0-.057-4.48,24.949,24.949,0,0,0-1.42-5.18c-1.228-3.22-3.021-6.51-4.574-10.01-2.813-6.41-4.139-13.12-6.06-19.24-1.916-6.14-4.336-11.58-9.032-15.95a2.893,2.893,0,0,1-.9-2.5,2.9,2.9,0,0,1,.746-1.59,2.889,2.889,0,0,1,4.087-.15c5.78,5.37,8.6,11.98,10.621,18.47,2.02,6.51,3.341,13.01,5.83,18.62,1.4,3.2,3.258,6.57,4.684,10.29a25.315,25.315,0,0,1,1.813,12.46m18.829,31.73a2.859,2.859,0,0,1-1.159,1.96h0c-17.184,12.53-27.483,31.58-40.985,48.77a2.885,2.885,0,0,1-4.06.48,2.9,2.9,0,0,1-1.077-2.65,2.913,2.913,0,0,1,.6-1.42c13.128-16.59,23.6-36.26,42.113-49.85a2.88,2.88,0,0,1,4.037.63,2.886,2.886,0,0,1,.534,2.08m31.411,116.13a2.9,2.9,0,0,1-2.177,2.44,2.9,2.9,0,0,1-3.5-2.13q-6.232-25.335-12.461-50.68a33.719,33.719,0,0,1,4.613-3.33,2.838,2.838,0,0,1,.879,1.46h0q6.289,25.59,12.58,51.17a2.936,2.936,0,0,1,.061,1.07m-102.938-148.66a2.877,2.877,0,0,1-1.025,1.86,2.879,2.879,0,0,1-4.069-.39c-7.732-9.36-17.843-15.07-27.641-16.34a30.224,30.224,0,0,0-13.542,1.2,2.894,2.894,0,0,1-3.655-1.84,2.85,2.85,0,0,1-.127-1.28,2.9,2.9,0,0,1,1.954-2.38,36.139,36.139,0,0,1,16.112-1.44c11.466,1.51,22.778,8.02,31.352,18.4a2.879,2.879,0,0,1,.641,2.21m80.7,47.38c-0.173.13-.346,0.27-0.517,0.41a2.859,2.859,0,0,0-1.068,1.89c0,0.02-.006.04-0.008,0.07a2.73,2.73,0,0,0-.282-0.13,2.892,2.892,0,0,0-2.945.48,2.717,2.717,0,0,1,.023-0.34,2.889,2.889,0,0,1,2.86-2.52h0a12.16,12.16,0,0,1,1.637.1c0.1,0.01.2,0.03,0.3,0.04m9.5,40.68a34.933,34.933,0,0,0-5.15,2.81c-3.763-10.95-4.456-22.16-5.917-32.9a5.951,5.951,0,0,1-.027-1.22c0.447-1.12.895-2.25,1.342-3.37h0a2.97,2.97,0,0,0,.182-0.7c0-.02.005-0.05,0.008-0.07a2.881,2.881,0,0,0,3.149-.29,15.174,15.174,0,0,1,1.626-1.1,6.715,6.715,0,0,1,.128,2.65c-0.2,1.4-.575,2.56-0.648,3.13,0,0.03-.006.05-0.008,0.07l-0.016.17h0c1.423,10.66,2.16,21.11,5.332,30.82m-11.781-120.07a3.047,3.047,0,0,1-.174.69h0q-0.546,1.395-1.085,2.79c-2.737,7.09-5.224,14.04-6.127,21.03,0,0.01,0,.02,0,0.03a41.477,41.477,0,0,0-.237,8.78l-1.2,2.79a2.83,2.83,0,0,0-.213.77,2.916,2.916,0,0,0,1.725,3.04,3.068,3.068,0,0,0,.877.22,2.894,2.894,0,0,1,.007.79,2.885,2.885,0,0,1-2.124,2.42,2.89,2.89,0,0,1-3.535-2.06,44.745,44.745,0,0,1-1.038-17.47c0-.01,0-0.02,0-0.03,1.154-8.87,4.431-17.14,7.561-25.21a2.9,2.9,0,0,1,2.236-1.81,2.81,2.81,0,0,1,1.506.17,2.892,2.892,0,0,1,1.819,3.06M24.79,1273.29a2.9,2.9,0,0,1-3.73,2.39c-12.234-3.87-21.632-11.52-30.652-19.07a94.657,94.657,0,0,1-4.109-10.34,2.87,2.87,0,0,1,1.488.63v0.01c11.313,9.27,21.57,19.06,35,23.24a2.907,2.907,0,0,1,2.006,3.14m-41.161-36.37a17.864,17.864,0,0,0-5.761.78c-1.172-4.9-2.09-9.89-2.853-14.95-0.043-.29-0.086-0.58-0.128-0.86a2.916,2.916,0,0,1-.008-0.8,2.9,2.9,0,0,1,2.443-2.49,2.9,2.9,0,0,1,3.282,2.45h0c0.154,1.04.314,2.07,0.48,3.1,0.706,4.36,1.533,8.61,2.544,12.77m42.056,70.67a2.888,2.888,0,0,1-5.323,1.15c-6.046-9.78-12.908-19.55-20.253-27.48-0.317-.35-0.63-0.69-0.94-1.03q0.251-.285.492-0.57v-0.01a2.845,2.845,0,0,0,.626-1.45,2.9,2.9,0,0,0-1.039-2.62,2.885,2.885,0,0,0-3.838.16,93.065,93.065,0,0,1-16.074-32.44,13.052,13.052,0,0,1,5.888-.45q0.512,1.725,1.077,3.42a94.657,94.657,0,0,0,4.109,10.34,80.9,80.9,0,0,0,13.939,20.71c7.721,8.35,14.754,18.39,20.928,28.38a2.873,2.873,0,0,1,.409,1.89m-55.468-73.68a2.916,2.916,0,0,1-.849,1.7A87.8,87.8,0,0,0-42.7,1250.49a2.89,2.89,0,0,0-2.424,0,2.881,2.881,0,0,0-1.659,2.26,2.9,2.9,0,0,0,.241,1.58l0.608,1.32c-5.253,8.77-9.811,18.16-15.029,27.32-2.228,3.89-3.947,8.32-6.026,12.78a2.886,2.886,0,0,1-3.843,1.4,2.9,2.9,0,0,1-1.643-3,2.784,2.784,0,0,1,.249-0.85c1.976-4.22,3.735-8.81,6.247-13.21,9.346-16.29,16.807-34.47,31.316-48.64a2.9,2.9,0,0,1,4.086.06,2.9,2.9,0,0,1,.8,2.4m131.716-.1a2.873,2.873,0,0,1-2.784,2.51,113.289,113.289,0,0,1-18.176-.44,47.283,47.283,0,0,1-9.7-2.26,2.9,2.9,0,0,1-1.909-3.1,2.622,2.622,0,0,1,.089-0.43,1.591,1.591,0,0,1,.051-0.16,2.39,2.39,0,0,1,.1-0.25,2.884,2.884,0,0,1,3.585-1.52h0a41.809,41.809,0,0,0,8.526,1.98,110.784,110.784,0,0,0,17.27.4,2.887,2.887,0,0,1,2.971,2.81,3.016,3.016,0,0,1-.023.46m-117.963-47.45a3.28,3.28,0,0,1-.075.38,2.881,2.881,0,0,1-3.538,2.04,10.467,10.467,0,0,1-4.588-2.93,24.2,24.2,0,0,1-4.718-7.29,16.83,16.83,0,0,1-1.536-8.36c0-.01,0-0.01,0-0.02a7.41,7.41,0,0,1,1.367-3.53c0.107-.14.221-0.28,0.343-0.41a22.161,22.161,0,0,0,3.09-4.53,54.55,54.55,0,0,0,3.1-7.62c1.6-4.59,3.182-9.6,6.7-14.02a2.885,2.885,0,0,1,4.062-.46,2.908,2.908,0,0,1,1.063,2.64,2.875,2.875,0,0,1-.607,1.43c-2.689,3.35-4.142,7.63-5.753,12.31-1.622,4.65-3.425,9.72-7.35,14.12a1.543,1.543,0,0,0-.285.84c-0.006.04-.011,0.07-0.016,0.11-0.2,1.54.651,4.72,2.161,7.31a16.635,16.635,0,0,0,2.5,3.42c0.143,0.15.285,0.29,0.423,0.41a4.366,4.366,0,0,0,1.535.99,2.9,2.9,0,0,1,2.1,2.31,2.911,2.911,0,0,1,.017.86m-49.144,4.45a2.881,2.881,0,0,1-.476,1.26,2.926,2.926,0,0,1-1.648,1.17q-11.166,2.955-22.335,5.92a2.892,2.892,0,0,1-3.535-2.05,2.927,2.927,0,0,1-.074-1.12,2.887,2.887,0,0,1,2.124-2.42l21.812-5.79c0.174-.05.348-0.09,0.522-0.14a2.889,2.889,0,0,1,3.535,2.06,2.849,2.849,0,0,1,.075,1.11m74.564,66.77a2.891,2.891,0,0,1-5.541.74c-1.405-3.53-1.663-6.88-2.648-9.09a6.428,6.428,0,0,0-1.9-2.64,9.491,9.491,0,0,0-4.318-1.76c-3.522-.67-6.667-1.59-9.443-1.95l-0.32-.03a13.052,13.052,0,0,0-5.888.45,11.148,11.148,0,0,0-1.887.88,15.174,15.174,0,0,0-1.626,1.1,2.881,2.881,0,0,1-3.149.29,2.893,2.893,0,0,0-1.524-2.86c0-.03.005-0.05,0.008-0.07a2.859,2.859,0,0,1,1.068-1.89c0.171-.14.344-0.28,0.517-0.41a16.96,16.96,0,0,1,5.126-2.64,17.864,17.864,0,0,1,5.761-.78,22.97,22.97,0,0,1,2.656.22c3.407,0.46,6.606,1.41,9.765,2a15.2,15.2,0,0,1,6.878,2.94,11.771,11.771,0,0,1,3.018,3.68,18.134,18.134,0,0,1,1.45,3.77c0.257,0.95.47,1.86,0.674,2.73a25.182,25.182,0,0,0,1.123,3.85,2.873,2.873,0,0,1,.2,1.47m18.6-66.97a2.888,2.888,0,0,1-5.636.46,15.352,15.352,0,0,1-.508-2.41,20.7,20.7,0,0,1,.079-5.34c0.316-2.41.842-4.61,1.1-6.61,0-.01,0-0.03.008-0.05s0-.02,0-0.03a13.058,13.058,0,0,0-.144-4.99,2.89,2.89,0,1,1,5.6-1.44,18.822,18.822,0,0,1,.278,7.21c-0.316,2.4-.843,4.6-1.1,6.6,0,0.02,0,.04-0.007.06a14.605,14.605,0,0,0-.05,4.06,9.024,9.024,0,0,0,.284,1.28,2.9,2.9,0,0,1,.1,1.2m4.132,63.86c0,0.01,0,.03-0.006.05a14.425,14.425,0,0,1-.349,1.79,2.892,2.892,0,0,1-5.665-1.11,2.806,2.806,0,0,1,.07-0.36l0.21-1.07a7.239,7.239,0,0,0,.046-1.38,6.267,6.267,0,0,0-.515-2.07,19.019,19.019,0,0,0-3.764-4.99,24.536,24.536,0,0,1-4.859-6.59,2.889,2.889,0,1,1,5.283-2.34h0a12.619,12.619,0,0,0,2.12,3.13c1,1.16,2.2,2.39,3.409,3.77a18.541,18.541,0,0,1,3.116,4.73,12.155,12.155,0,0,1,.913,6.34c0,0.03-.008.06-0.012,0.1M0.286,1278.2a2.845,2.845,0,0,1-.626,1.45v0.01q-0.241.285-.492,0.57a14.959,14.959,0,0,1-7.509,4.17,53.454,53.454,0,0,0-6.864,1.82,27.666,27.666,0,0,0-3.334,1.7,33.719,33.719,0,0,0-4.613,3.33c-3.9,3.32-7.3,7.48-10.86,11.8a2.878,2.878,0,0,1-4.07.37,2.883,2.883,0,0,1-1.022-2.6,2.824,2.824,0,0,1,.641-1.47c4.512-5.43,9.142-11.3,15.55-15.52a34.933,34.933,0,0,1,5.15-2.81l0.287-.12a53.539,53.539,0,0,1,7.649-2.1,8.848,8.848,0,0,0,5.008-2.81,3.018,3.018,0,0,1,.229-0.25,2.885,2.885,0,0,1,3.838-.16,2.9,2.9,0,0,1,1.039,2.62m-27.62-32.56a2.97,2.97,0,0,1-.182.7h0c-0.448,1.12-.9,2.25-1.342,3.37q-2.344,5.91-4.688,11.8a2.933,2.933,0,0,1-.809,1.13,2.872,2.872,0,0,1-2.946.48,2.789,2.789,0,0,1-1.02-.69,2.906,2.906,0,0,0,.676-1.52,2.854,2.854,0,0,0-.241-1.57l-0.547-1.2q2.773-6.975,5.545-13.95a2.94,2.94,0,0,1,.81-1.13,2.892,2.892,0,0,1,2.945-.48,2.73,2.73,0,0,1,.282.13,2.893,2.893,0,0,1,1.524,2.86c0,0.02,0,.05-0.008.07m0.546-61.16a3.028,3.028,0,0,1-.212.78h0q-3.029,7.05-6.058,14.09a2.884,2.884,0,0,1-2.92,1.74,3.068,3.068,0,0,1-.877-0.22,2.916,2.916,0,0,1-1.725-3.04,2.83,2.83,0,0,1,.213-0.77l1.2-2.79q2.431-5.655,4.86-11.3a2.891,2.891,0,0,1,3.8-1.52,2.9,2.9,0,0,1,1.726,3.03m61.518,100.36a2.891,2.891,0,0,1-5.752-.57q0.762-11.8,1.525-23.63c0-.06.01-0.13,0.018-0.19a2.891,2.891,0,0,1,5.751.57h0q-0.029.435-.056,0.87-0.735,11.385-1.467,22.76c0,0.07-.01.13-0.018,0.19M-2.336,1136.67a2.885,2.885,0,0,1-1.268,2.04,2.883,2.883,0,0,1-4.006-.81,26.276,26.276,0,0,1-2.333-4.12,9.73,9.73,0,0,1-.848-5.08c0-.02.006-0.04,0.009-0.06,0.335-2.59,2.1-4.92,4.781-6.6a2.887,2.887,0,0,1,3.992.88,2.881,2.881,0,0,1,.435,1.93,2.892,2.892,0,0,1-1.305,2.07c-1.846,1.23-2.082,1.96-2.18,2.53,0,0.01,0,.01,0,0.02a4.118,4.118,0,0,0,.433,2.04,21.648,21.648,0,0,0,1.834,3.19,2.874,2.874,0,0,1,.458,1.97m-35.308,124.24a2.906,2.906,0,0,1-.676,1.52,2.72,2.72,0,0,1-.984.74,2.849,2.849,0,0,1-1.232.27,2.9,2.9,0,0,1-2.6-1.69q-1.4-3.045-2.8-6.1l-0.608-1.32a2.9,2.9,0,0,1-.241-1.58,2.881,2.881,0,0,1,1.659-2.26,2.89,2.89,0,0,1,2.424,0,2.893,2.893,0,0,1,1.41,1.42h0q1.428,3.12,2.858,6.23l0.547,1.2a2.854,2.854,0,0,1,.241,1.57" transform="translate(0 -975.969)"/>
</svg>
